<svg xmlns:mydata="http://www.w3.org/2000/svg" mydata:contrastcolor="11111f" mydata:template="Contrast" mydata:presentation="2.5" mydata:layouttype="undefined" mydata:specialfontid="undefined" mydata:id1="144" mydata:id2="144" mydata:companyname="Liga A1" mydata:companytagline="" version="1.1" xmlns="http://www.w3.org/2000/svg" xmlns:xlink="http://www.w3.org/1999/xlink" viewBox="0 35 550 400"><g fill="#8edd65" fill-rule="none" stroke="none" stroke-width="1" stroke-linecap="butt" stroke-linejoin="miter" stroke-miterlimit="10" stroke-dasharray="" stroke-dashoffset="0" font-family="none" font-weight="none" font-size="none" text-anchor="none" style="mix-blend-mode: normal"><g data-paper-data="{&quot;isGlobalGroup&quot;:true,&quot;bounds&quot;:{&quot;x&quot;:146.0002300716896,&quot;y&quot;:106.00000000000003,&quot;width&quot;:257.99953985662074,&quot;height&quot;:258}}"><g data-paper-data="{&quot;fillRule&quot;:&quot;nonzero&quot;,&quot;fillRuleOriginal&quot;:&quot;nonzero&quot;,&quot;isIcon&quot;:true,&quot;iconStyle&quot;:&quot;standalone&quot;,&quot;selectedEffects&quot;:{&quot;container&quot;:&quot;enclosed_circle_outline3&quot;,&quot;transformation&quot;:&quot;&quot;,&quot;pattern&quot;:&quot;&quot;},&quot;bounds&quot;:{&quot;x&quot;:201.3765531622551,&quot;y&quot;:161.37678323394476,&quot;width&quot;:147.24692964950788,&quot;height&quot;:147.24588136005542},&quot;widthRatioIconToContainer&quot;:0.9606812993230436,&quot;heightRatioIconToContainer&quot;:0.5810519215634302,&quot;relativeBoundsIconToContainer&quot;:{&quot;top&quot;:-0.05679609453986746,&quot;left&quot;:-5.53157785320546e-7},&quot;iconType&quot;:&quot;icon&quot;,&quot;rawIconId&quot;:&quot;a520f8e3-ff9a-4e59-9172-1ed53d1bf943&quot;,&quot;isDetailed&quot;:false,&quot;blockLetter&quot;:&quot;O&quot;,&quot;suitableAsStandaloneIcon&quot;:true}" fill-rule="evenodd"><g data-paper-data="{&quot;isPathIcon&quot;:true}"><path d="M246.34188,167.16334c-8.80843,3.72562 -16.60875,8.98454 -23.40097,15.77676c-6.79222,6.79222 -12.05114,14.59254 -15.77676,23.40097c-3.8584,9.12152 -5.78761,18.67458 -5.78761,28.65919c0,8.06135 1.25795,15.84175 3.77279,23.34016l1.60283,-3.14696l1.36068,-2.67209l0.7988,-1.56929c-1.24746,-5.17645 -1.8712,-10.49443 -1.8712,-15.95182c0,-9.21971 1.78,-18.03687 5.33894,-26.45254c3.43944,-8.13053 8.29407,-15.33123 14.56598,-21.60315c6.27157,-6.27087 13.47227,-11.12585 21.6021,-14.56493c8.41637,-3.55999 17.23388,-5.33999 26.45254,-5.33999c9.21866,0 18.03617,1.78 26.45254,5.33999c4.68515,1.98197 9.06176,4.43426 13.12983,7.3569h9.0698c-5.95848,-5.26451 -12.6235,-9.45557 -19.99402,-12.57318c-9.12117,-3.85771 -18.67423,-5.78656 -28.65814,-5.78656c-9.98391,0 -19.53697,1.92885 -28.65814,5.78656z"></path><path d="M293.24654,269.41559l-40.39898,-85.55719h-5.00349l-43.57215,85.55719h19.16168l26.48503,-51.99411l24.41047,51.99411z"></path><path d="M345.72811,269.41559v-17.20872h-10.86238v-68.22687h-29.41395v17.20872h12.20523v51.01815h-12.20523v17.20872z"></path><path d="M348.62348,235.00025c0,-9.98496 -1.92885,-19.53802 -5.78761,-28.65919c-1.10699,-2.61653 -2.34922,-5.14431 -3.72667,-7.58333v13.62567c2.56691,7.24927 3.85037,14.78822 3.85037,22.61684c0,4.41225 -0.40778,8.7333 -1.22335,12.9621h3.99189l0.20861,0.00524l0.20756,0.01572l0.20651,0.02516l0.20546,0.03564l0.20337,0.04612l0.20022,0.05556l0.19813,0.06499l0.19393,0.07443l0.08072,0.03564c0.79356,-4.35145 1.19086,-8.792 1.19086,-13.32061z"></path><path d="M327.05912,287.05935c-6.79222,6.79222 -14.59254,12.05114 -23.40097,15.77676c-9.12117,3.85771 -18.67423,5.78656 -28.65814,5.78656c-9.98391,0 -19.53697,-1.92885 -28.65814,-5.78656c-8.80843,-3.72562 -16.60875,-8.98454 -23.40097,-15.77676c-4.09986,-4.09986 -7.64098,-8.56662 -10.62337,-13.40028h6.76671c2.31148,3.33461 4.9322,6.4669 7.86112,9.39582c6.27087,6.27087 13.47262,11.12654 21.6021,14.56493c8.41672,3.55999 17.23388,5.33999 26.45254,5.33999c9.21866,0 18.03582,-1.78 26.45254,-5.33999c8.12948,-3.43839 15.33018,-8.29407 21.6021,-14.56493c2.92892,-2.92997 5.54964,-6.06121 7.86007,-9.39582h6.76776c-2.98273,4.83401 -6.52385,9.30077 -10.62337,13.40028z"></path></g></g><g data-paper-data="{&quot;isPrimaryText&quot;:true}" fill-rule="nonzero"><path d="M225.80482,157.04155l-1.15788,-1.53656l-10.5332,7.93734l-11.57878,-15.36556l-1.58109,1.19144l12.73666,16.90211z" data-paper-data="{&quot;glyphName&quot;:&quot;L&quot;,&quot;glyphIndex&quot;:0,&quot;firstGlyphOfWord&quot;:true,&quot;word&quot;:1}"></path><path d="M234.85496,152.04536l-9.43945,-18.94203l-1.79687,0.89544l9.43945,18.94203z" data-paper-data="{&quot;glyphName&quot;:&quot;I&quot;,&quot;glyphIndex&quot;:1,&quot;word&quot;:1}"></path><path d="M259.6523,127.03011c-0.75468,-0.6043 -1.4834,-1.11924 -2.18614,-1.54481c-0.70274,-0.42557 -1.42925,-0.74998 -2.17953,-0.97323c-0.75028,-0.22325 -1.54586,-0.33545 -2.38675,-0.33661c-0.84089,-0.00116 -1.77682,0.12053 -2.8078,0.36506c-1.17568,0.27885 -2.36057,0.76049 -3.55468,1.44491c-1.19411,0.68442 -2.23297,1.58039 -3.11658,2.68789c-0.88361,1.1075 -1.51725,2.42319 -1.9009,3.94705c-0.38366,1.52386 -0.34383,3.26251 0.11949,5.21594c0.40326,1.70021 1.06444,3.13865 1.98353,4.31531c0.9191,1.17666 1.99341,2.10158 3.22295,2.77475c1.22954,0.67317 2.56026,1.08831 3.99218,1.24541c1.43192,0.1571 2.87137,0.06405 4.31836,-0.27915c0.74158,-0.17589 1.44078,-0.38949 2.09761,-0.6408c0.65683,-0.25131 1.29174,-0.55474 1.90474,-0.91029c0.613,-0.35555 1.21205,-0.76987 1.79717,-1.24299c0.58511,-0.47311 1.1746,-1.02846 1.76847,-1.66604l-1.80823,-7.62382l-9.7943,2.32303l0.44401,1.87204l7.868,-1.86615l1.13899,4.80219c-0.77567,0.75712 -1.65931,1.40134 -2.65092,1.93266c-0.99162,0.53132 -1.99387,0.9171 -3.00676,1.15734c-1.2842,0.30459 -2.53313,0.39543 -3.74678,0.27254c-1.21365,-0.1229 -2.33002,-0.45992 -3.34912,-1.01106c-1.0191,-0.55114 -1.89915,-1.32153 -2.64015,-2.31118c-0.741,-0.98964 -1.27882,-2.18987 -1.61344,-3.60069c-0.39468,-1.66404 -0.43216,-3.131 -0.11245,-4.40088c0.31971,-1.26988 0.84917,-2.36026 1.58838,-3.27112c0.7392,-0.91086 1.61151,-1.64314 2.61692,-2.19684c1.00541,-0.5537 1.99648,-0.94637 2.97319,-1.17803c0.77776,-0.18447 1.49128,-0.27728 2.14057,-0.27845c0.64929,-0.00116 1.27612,0.0842 1.88048,0.25609c0.60436,0.17189 1.19745,0.4372 1.77926,0.79593c0.58181,0.35873 1.20316,0.80361 1.86404,1.33463z" data-paper-data="{&quot;glyphName&quot;:&quot;G&quot;,&quot;glyphIndex&quot;:2,&quot;word&quot;:1}"></path><path d="M290.24317,144.06035l-8.1429,-21.66504l-1.25271,-0.07178l-10.53644,20.59472l2.11569,0.12123l3.45777,-6.72837l9.52061,0.54553l2.69444,7.08089zM284.67853,134.9158l-7.82249,-0.44823l2.3654,-4.72419c0.35591,-0.68715 0.6979,-1.3751 1.02597,-2.06385c0.32807,-0.68875 0.67059,-1.38598 1.02756,-2.09169c0.2719,0.77898 0.54513,1.53477 0.81968,2.26736c0.27456,0.73259 0.54885,1.46982 0.82287,2.21168z" data-paper-data="{&quot;glyphName&quot;:&quot;A&quot;,&quot;glyphIndex&quot;:3,&quot;lastGlyphOfWord&quot;:true,&quot;word&quot;:1}"></path><path d="M326.63589,158.60322l1.60788,-23.08886l-1.10931,-0.58641l-18.14892,14.34489l1.8735,0.99038l5.9434,-4.68009l8.43075,4.45669l-0.49545,7.56zM325.37978,147.97259l-6.92702,-3.66178l4.11629,-3.31199c0.60951,-0.47681 1.20669,-0.96014 1.79154,-1.44998c0.58486,-0.48984 1.18638,-0.98139 1.80457,-1.47464c-0.07681,0.82149 -0.14275,1.62244 -0.19784,2.40284c-0.05509,0.7804 -0.11235,1.56492 -0.17178,2.35354z" data-paper-data="{&quot;glyphName&quot;:&quot;A&quot;,&quot;glyphIndex&quot;:4,&quot;firstGlyphOfWord&quot;:true,&quot;word&quot;:2}"></path><path d="M336.07201,165.98601l13.01487,-16.29811l-0.7844,-0.62638l-8.62462,-2.6052l-0.42949,1.83371l6.83872,2.07115l-11.51851,14.42426z" data-paper-data="{&quot;glyphName&quot;:&quot;1&quot;,&quot;glyphIndex&quot;:5,&quot;lastGlyphOfWord&quot;:true,&quot;word&quot;:2}"></path></g><g data-paper-data="{&quot;isMirroredPrimaryText&quot;:true}" fill-rule="nonzero"><path d="M212.78288,330.23857l1.15788,-1.53656l-10.5332,-7.93734l11.57878,-15.36556l-1.58109,-1.19144l-12.73666,16.90211z" data-paper-data="{&quot;glyphName&quot;:&quot;L&quot;,&quot;glyphIndex&quot;:0,&quot;firstGlyphOfWord&quot;:true,&quot;word&quot;:1}"></path><path d="M225.20409,337.32037l9.43945,-18.94203l-1.79687,-0.89544l-9.43945,18.94203z" data-paper-data="{&quot;glyphName&quot;:&quot;I&quot;,&quot;glyphIndex&quot;:1,&quot;word&quot;:1}"></path><path d="M262.47082,331.08594c-0.40291,-0.87886 -0.82274,-1.66621 -1.2595,-2.36206c-0.43676,-0.69584 -0.94019,-1.31197 -1.51029,-1.84839c-0.5701,-0.53642 -1.23055,-0.99397 -1.98135,-1.37264c-0.7508,-0.37868 -1.64169,-0.69028 -2.67267,-0.93481c-1.17568,-0.27885 -2.45066,-0.38065 -3.82495,-0.30541c-1.37429,0.07524 -2.70487,0.40922 -3.99174,1.00193c-1.28687,0.59271 -2.44388,1.48368 -3.47104,2.67292c-1.02716,1.18924 -1.77239,2.76058 -2.23571,4.71401c-0.40326,1.70021 -0.45851,3.28236 -0.16575,4.74645c0.29276,1.46409 0.83726,2.77296 1.63351,3.92661c0.79625,1.15365 1.79879,2.1222 3.00763,2.90564c1.20884,0.78344 2.53675,1.34676 3.98374,1.68996c0.74158,0.17589 1.46223,0.29905 2.16196,0.36949c0.69973,0.07044 1.40328,0.08447 2.11066,0.04209c0.70738,-0.04238 1.4287,-0.14354 2.16396,-0.30348c0.73526,-0.15994 1.51137,-0.3914 2.32831,-0.69436l1.80823,-7.62382l-9.7943,-2.32303l-0.44401,1.87204l7.868,1.86615l-1.13899,4.80219c-1.03307,0.32812 -2.1119,0.50688 -3.23651,0.53627c-1.1246,0.02939 -2.19335,-0.07604 -3.20624,-0.31628c-1.2842,-0.30459 -2.44089,-0.78431 -3.47007,-1.43917c-1.02918,-0.65486 -1.87528,-1.45734 -2.53831,-2.40745c-0.66303,-0.95011 -1.10335,-2.03367 -1.32098,-3.25068c-0.21763,-1.21701 -0.15913,-2.53093 0.17549,-3.94174c0.39468,-1.66404 1.02,-2.99157 1.87596,-3.98261c0.85596,-0.99103 1.81871,-1.72748 2.88824,-2.20935c1.06953,-0.48186 2.17779,-0.74439 3.32477,-0.78758c1.14698,-0.04319 2.20883,0.05105 3.18555,0.28271c0.77776,0.18447 1.45696,0.42198 2.03761,0.71254c0.58065,0.29056 1.10237,0.64834 1.56516,1.07333c0.46279,0.425 0.87355,0.9284 1.23228,1.51021c0.35873,0.58181 0.7141,1.25835 1.06611,2.02961z" data-paper-data="{&quot;glyphName&quot;:&quot;G&quot;,&quot;glyphIndex&quot;:2,&quot;word&quot;:1}"></path><path d="M291.48097,347.54141l-10.56428,-20.59312l-1.25271,0.07178l-8.11506,21.66344l2.11569,-0.12123l2.6666,-7.0793l9.52061,-0.54553l3.48561,6.72678zM284.90822,339.09232l-7.82249,0.44823l1.8103,-4.96345c0.27509,-0.72331 0.53626,-1.44582 0.78351,-2.16753c0.24725,-0.72171 0.50789,-1.4535 0.78191,-2.19537c0.3591,0.74283 0.71687,1.46246 1.07331,2.15889c0.35644,0.69643 0.71314,1.3975 1.07011,2.10322z" data-paper-data="{&quot;glyphName&quot;:&quot;A&quot;,&quot;glyphIndex&quot;:3,&quot;lastGlyphOfWord&quot;:true,&quot;word&quot;:1}"></path><path d="M336.74815,330.52564l-18.17357,-14.33185l-1.10931,0.58641l1.63253,23.07583l1.8735,-0.99038l-0.52011,-7.54697l8.43075,-4.45669l5.96805,4.66706zM327.25628,325.57663l-6.92702,3.66178l-0.41859,-5.26667c-0.05074,-0.77219 -0.11381,-1.53786 -0.18921,-2.29702c-0.07539,-0.75916 -0.14281,-1.53305 -0.20224,-2.32167c0.63557,0.52612 1.26028,1.03169 1.87413,1.51672c0.61385,0.48503 1.22987,0.97417 1.84807,1.46741z" data-paper-data="{&quot;glyphName&quot;:&quot;A&quot;,&quot;glyphIndex&quot;:4,&quot;firstGlyphOfWord&quot;:true,&quot;word&quot;:2}"></path><path d="M349.57407,320.92161l-13.01487,-16.29811l-0.7844,0.62638l-4.44873,7.83454l1.69325,0.82454l3.5328,-6.21104l11.51851,14.42426z" data-paper-data="{&quot;glyphName&quot;:&quot;1&quot;,&quot;glyphIndex&quot;:5,&quot;lastGlyphOfWord&quot;:true,&quot;word&quot;:2}"></path></g><g data-paper-data="{&quot;isContainerElementsWrapper&quot;:true}" fill-rule="evenodd"><path d="M183.78334,143.78311c-11.90219,11.90228 -21.11718,25.57014 -27.64495,41.00356c-6.75877,15.97968 -10.13816,32.71736 -10.13816,50.21305c0,17.49526 3.37939,34.23313 10.13816,50.21361c6.52772,15.43321 15.7427,29.101 27.64495,41.00338c11.90374,11.90299 25.57163,21.11782 41.00365,27.64449c15.98047,6.7592 32.71816,10.1388 50.21305,10.1388c17.49612,0 34.23381,-3.3796 50.21305,-10.1388c15.43444,-6.5279 29.10223,-15.74273 41.00338,-27.64449c11.9036,-11.90422 21.11874,-25.57201 27.64541,-41.00338c6.75859,-15.98109 10.13788,-32.71896 10.13788,-50.21361c0,-17.49637 -3.37929,-34.23405 -10.13788,-50.21305c-6.5279,-15.434 -15.74304,-29.10186 -27.64541,-41.00356c-11.90238,-11.90225 -25.57017,-21.11727 -41.00338,-27.64505c-15.97925,-6.75871 -32.71693,-10.13806 -50.21305,-10.13806c-17.49576,0 -34.23344,3.37935 -50.21305,10.13806c-15.43351,6.52784 -29.10139,15.74285 -41.00365,27.64505zM148.54556,234.99972c0,-17.15163 3.31239,-33.55881 9.93716,-49.22154c6.39882,-15.12859 15.43232,-28.52698 27.10051,-40.19518c11.66827,-11.66825 25.06669,-20.70179 40.19527,-27.1006c15.66285,-6.62471 32.07003,-9.93707 49.22154,-9.93707c17.15194,0 33.55893,3.31236 49.22099,9.93707c15.1289,6.39882 28.52736,15.43235 40.19536,27.1006c11.66801,11.66736 20.70154,25.06576 27.1006,40.19518c6.62484,15.66261 9.93726,32.06978 9.93726,49.22154c0,17.15108 -3.31242,33.55826 -9.93726,49.22154c-6.39722,15.12706 -15.43075,28.52552 -27.1006,40.19536c-11.66678,11.6674 -25.06524,20.70062 -40.19536,27.09968c-15.66267,6.62545 -32.06966,9.93818 -49.22099,9.93818c-17.15034,0 -33.55752,-3.31273 -49.22154,-9.93818c-15.12759,-6.39783 -28.52602,-15.43106 -40.19527,-27.09968c-11.66832,-11.66801 -20.70182,-25.06646 -27.10051,-40.19536c-6.62478,-15.66267 -9.93716,-32.06985 -9.93716,-49.22154z" data-paper-data="{&quot;isBaseLogoContainer&quot;:true}"></path></g></g></g><g class="watermark-group" style="opacity:0.040000010281801224"><path class="watermark-path" d="M129.52,370.3a11.88,11.88,0,0,1,2.58,5.58,12,12,0,0,1,.11,3,11.81,11.81,0,0,1-.64,2.93,12.34,12.34,0,0,1-1.41,2.72,11.65,11.65,0,0,1-2.13,2.32,12,12,0,0,1-2.64,1.69,13,13,0,0,1-2.91.9,12.47,12.47,0,0,1-3,.12,12.17,12.17,0,0,1-2.93-.64,11.8,11.8,0,0,1-2.72-1.38,12.19,12.19,0,0,1-4-4.79,11.85,11.85,0,0,1-.89-2.92,12.14,12.14,0,0,1-.13-3,11.54,11.54,0,0,1,.64-2.92,11.67,11.67,0,0,1,3.5-5,11.44,11.44,0,0,1,2.67-1.69,11.64,11.64,0,0,1,2.92-.91,10.71,10.71,0,0,1,3-.12,11.68,11.68,0,0,1,5.66,2,11.7,11.7,0,0,1,2.34,2.12m-1.4,8.76a13,13,0,0,1-1.22,2.32,9.68,9.68,0,0,1-1.81,2,7.44,7.44,0,0,1-2.38,1.37,6.17,6.17,0,0,1-5.11-.46,8.73,8.73,0,0,1-3.85-4.58,6.69,6.69,0,0,1-.34-2.66,6.09,6.09,0,0,1,.77-2.47,7.15,7.15,0,0,1,1.75-2.11,9.58,9.58,0,0,1,1.09-.81,8.23,8.23,0,0,1,1.12-.63,8.14,8.14,0,0,1,1.19-.46,12.71,12.71,0,0,1,1.32-.37l2,2.38a12.83,12.83,0,0,0-1.56.17,7.86,7.86,0,0,0-1.23.32,4.5,4.5,0,0,0-1,.49,6.41,6.41,0,0,0-.93.67,4.49,4.49,0,0,0-1.15,1.39,3.87,3.87,0,0,0-.45,1.58,4.12,4.12,0,0,0,.26,1.63,6.11,6.11,0,0,0,2.36,2.82,4.43,4.43,0,0,0,1.57.53,3.91,3.91,0,0,0,1.62-.17,4.71,4.71,0,0,0,1.57-.89,10.5,10.5,0,0,0,.83-.79,5.71,5.71,0,0,0,.65-.93,10.13,10.13,0,0,0,.54-1.14,12.24,12.24,0,0,0,.44-1.49l2,2.33m-14.46,4.55a8.86,8.86,0,0,0,2.78,2.22,9,9,0,0,0,3.29.94,9.15,9.15,0,0,0,3.39-.37,8.68,8.68,0,0,0,3.11-1.69,8.8,8.8,0,0,0,2.22-2.78,9.15,9.15,0,0,0,1-3.29,8.95,8.95,0,0,0-4.83-8.76,9,9,0,0,0-6.73-.57,9,9,0,0,0-5.33,4.47,8.94,8.94,0,0,0-.57,6.71,8.76,8.76,0,0,0,1.7,3.12"></path><path class="watermark-path" d="M147,349c-.48.12-1.09.31-1.82.57a24.37,24.37,0,0,0-2.4,1A28.35,28.35,0,0,0,140,352a20.72,20.72,0,0,0-2.71,1.94c-.7.59-1.28,1.11-1.74,1.57a15.07,15.07,0,0,0-1.1,1.22,4.09,4.09,0,0,0-.59.92,2.32,2.32,0,0,0-.22.64,1.16,1.16,0,0,0,0,.47,1.83,1.83,0,0,0,.18.29,1.15,1.15,0,0,0,1,.37,5.54,5.54,0,0,0,1.51-.38q.87-.35,1.95-.9l2.26-1.18q1.2-.65,2.49-1.29c.87-.44,1.73-.83,2.59-1.17a18.94,18.94,0,0,1,2.6-.81,9.27,9.27,0,0,1,2.46-.29,6.25,6.25,0,0,1,2.24.49,5.12,5.12,0,0,1,1.89,1.47,6.35,6.35,0,0,1,1.41,2.61,6,6,0,0,1,.09,2.6,8.3,8.3,0,0,1-.9,2.52,17.79,17.79,0,0,1-1.62,2.37,23.92,23.92,0,0,1-2,2.15c-.72.67-1.41,1.29-2.09,1.87a33.79,33.79,0,0,1-5.33,3.7,32.29,32.29,0,0,1-4.91,2.28l-3.61-4.3a21.38,21.38,0,0,0,5.39-1.87,27.2,27.2,0,0,0,5.4-3.56,21.59,21.59,0,0,0,2.38-2.27,8.67,8.67,0,0,0,1.18-1.7,2.32,2.32,0,0,0,.27-1.19,1.34,1.34,0,0,0-.28-.74,1.21,1.21,0,0,0-1-.42,4.32,4.32,0,0,0-1.55.34,15.77,15.77,0,0,0-2,.88c-.72.37-1.48.77-2.27,1.21l-2.45,1.3c-.85.45-1.7.85-2.56,1.21a22.37,22.37,0,0,1-2.54.86,10,10,0,0,1-2.43.32,5.76,5.76,0,0,1-2.2-.45,5,5,0,0,1-1.89-1.45,6.12,6.12,0,0,1-1.31-2.41,6,6,0,0,1-.1-2.41,8.28,8.28,0,0,1,.81-2.38,14.06,14.06,0,0,1,1.49-2.24,22.37,22.37,0,0,1,1.85-2.05q1-1,2-1.77c.7-.59,1.44-1.15,2.23-1.7s1.62-1.06,2.44-1.53,1.63-.91,2.43-1.3,1.58-.75,2.3-1L147,349"></path><path class="watermark-path" d="M186.76,337.57l-10.6-12.63,3.92,18.24-4.66,3.91-17.27-7,10.6,12.63-4.86,4.07-15.09-18,6.59-5.54,18.69,7.52-4.15-19.71,6.57-5.52,15.09,18-4.83,4.05"></path><path class="watermark-path" d="M208.84,313.24l-10,8.42,1.16,4.82L194.56,331l-5.68-25.89,5.42-4.55,24.51,10.09-5.42,4.55-4.55-2m-11.23,3.45,6.57-5.52-8.83-3.87,2.26,9.39"></path><path class="watermark-path" d="M227.49,281.38c-.48.12-1.09.31-1.82.57a24.37,24.37,0,0,0-2.4,1,26.11,26.11,0,0,0-2.7,1.47,20.72,20.72,0,0,0-2.71,1.94c-.7.59-1.28,1.11-1.74,1.57a13.39,13.39,0,0,0-1.1,1.22,4.29,4.29,0,0,0-.59.91,2.48,2.48,0,0,0-.22.65,1.16,1.16,0,0,0,0,.47,1.83,1.83,0,0,0,.18.29,1.15,1.15,0,0,0,1,.37,5.54,5.54,0,0,0,1.51-.38q.87-.34,2-.9l2.26-1.18q1.2-.64,2.49-1.29c.87-.44,1.73-.83,2.59-1.17a18.94,18.94,0,0,1,2.6-.81,9.27,9.27,0,0,1,2.46-.29,6.08,6.08,0,0,1,2.24.49,5.09,5.09,0,0,1,1.89,1.46,6.47,6.47,0,0,1,1.41,2.61,6.07,6.07,0,0,1,.09,2.61,8.3,8.3,0,0,1-.9,2.52,16.32,16.32,0,0,1-1.63,2.36,21.41,21.41,0,0,1-2,2.16c-.72.67-1.41,1.29-2.1,1.86a33.36,33.36,0,0,1-5.32,3.71,31.92,31.92,0,0,1-4.92,2.28l-3.6-4.3a21.38,21.38,0,0,0,5.39-1.87,27.2,27.2,0,0,0,5.4-3.56,21.59,21.59,0,0,0,2.38-2.27,8.67,8.67,0,0,0,1.18-1.7A2.32,2.32,0,0,0,231,293a1.34,1.34,0,0,0-.28-.74,1.21,1.21,0,0,0-1-.42,4.32,4.32,0,0,0-1.55.34,16.54,16.54,0,0,0-2,.88c-.71.37-1.47.77-2.26,1.21l-2.46,1.3c-.84.44-1.7.85-2.55,1.21a24.53,24.53,0,0,1-2.54.86A10,10,0,0,1,214,298a5.76,5.76,0,0,1-2.2-.45,5,5,0,0,1-1.89-1.45,6.12,6.12,0,0,1-1.31-2.41,5.78,5.78,0,0,1-.1-2.41,8,8,0,0,1,.81-2.38,14.61,14.61,0,0,1,1.49-2.25,22.26,22.26,0,0,1,1.85-2q1-1,2-1.77c.7-.59,1.44-1.15,2.23-1.7s1.62-1.06,2.44-1.53,1.63-.91,2.43-1.31,1.58-.74,2.3-1l3.5,4.16"></path><path class="watermark-path" d="M261.64,274.74l-6.29-7.5L243,277.61l6.3,7.5-4.86,4.07-15.09-18,4.85-4.08,5.49,6.55L252,263.3l-5.49-6.55,4.86-4.07,15.09,18-4.86,4.08"></path><path class="watermark-path" d="M272.18,265.9l-15.09-18,4.86-4.08,15.09,18-4.86,4.08"></path><path class="watermark-path" d="M299.65,242.85l-22.51-2.18L287.51,253l-4.85,4.08-15.1-18,5.28-4.43,22.56,2.22L285,224.5l4.83-4.06,15.09,18-5.26,4.42"></path><path class="watermark-path" d="M306.68,205.52a31.88,31.88,0,0,1,5.29-3.66,34.48,34.48,0,0,1,5.14-2.35l3.69,4.39a20.77,20.77,0,0,0-2.37.61,20.47,20.47,0,0,0-2.61,1,25.12,25.12,0,0,0-2.76,1.49,23.9,23.9,0,0,0-2.8,2,20.42,20.42,0,0,0-2.8,2.77,12.77,12.77,0,0,0-1.64,2.52,7,7,0,0,0-.68,2.24,6,6,0,0,0,.66,3.64,8.16,8.16,0,0,0,.94,1.38,9.12,9.12,0,0,0,1.08,1.07,6.39,6.39,0,0,0,1.47.91,6.73,6.73,0,0,0,1.88.48,6.54,6.54,0,0,0,2.28-.18,11.67,11.67,0,0,0,2.74-1.07,19.38,19.38,0,0,0,3.18-2.22c.57-.48,1.06-.92,1.46-1.31a14.57,14.57,0,0,0,1-1.13,11.46,11.46,0,0,0,.81-1.05l.74-1.09-1.82-2.17-5.45,4.57-3.31-3.94,10.31-8.65,7.71,9.19a29,29,0,0,1-1.67,2.43q-1,1.26-2.1,2.52c-.74.84-1.5,1.65-2.3,2.44s-1.58,1.5-2.33,2.14a31,31,0,0,1-3.59,2.61,22.55,22.55,0,0,1-3.64,1.83,15.64,15.64,0,0,1-3.63.89,10.72,10.72,0,0,1-3.49-.15,10.45,10.45,0,0,1-3.28-1.33,12.54,12.54,0,0,1-3-2.67,12,12,0,0,1-2.08-3.44,10.45,10.45,0,0,1-.71-3.5,11.14,11.14,0,0,1,.51-3.51,15.72,15.72,0,0,1,1.56-3.43,21.62,21.62,0,0,1,2.42-3.28,30.3,30.3,0,0,1,3.15-3"></path><path class="watermark-path" d="M336.91,211.59l-15.1-18,4.86-4.08,11.79,14,13.13-11,3.31,3.94-18,15.1"></path><path class="watermark-path" d="M374.54,164.71a12.28,12.28,0,0,1,2.59,4.81,10.44,10.44,0,0,1,0,5,14.62,14.62,0,0,1-2.33,5,25.55,25.55,0,0,1-4.56,4.85,26.07,26.07,0,0,1-5.6,3.67,14.79,14.79,0,0,1-5.38,1.43,10.43,10.43,0,0,1-4.94-.89,13.24,13.24,0,0,1-6.87-8.18,10.48,10.48,0,0,1,0-5,14.51,14.51,0,0,1,2.36-5,25.23,25.23,0,0,1,4.57-4.89,25,25,0,0,1,5.59-3.64,14.45,14.45,0,0,1,5.35-1.43,10.31,10.31,0,0,1,4.93.92,12.22,12.22,0,0,1,4.28,3.38m-4.91,4.11a8.36,8.36,0,0,0-2-1.72,5.5,5.5,0,0,0-2.65-.85,7.72,7.72,0,0,0-3.32.57,14.49,14.49,0,0,0-4,2.52,16.72,16.72,0,0,0-2.38,2.4,10.15,10.15,0,0,0-1.39,2.24,6.71,6.71,0,0,0-.56,2.1,5.69,5.69,0,0,0,.1,1.9,6.21,6.21,0,0,0,.61,1.69,9.85,9.85,0,0,0,1,1.44,10.48,10.48,0,0,0,1.26,1.23,6.67,6.67,0,0,0,1.57.92,6.1,6.1,0,0,0,1.85.41,6.8,6.8,0,0,0,2.15-.2,11.06,11.06,0,0,0,2.45-1,17.67,17.67,0,0,0,2.77-1.94,14.39,14.39,0,0,0,3.18-3.52,7.74,7.74,0,0,0,1.14-3.17,5.54,5.54,0,0,0-.37-2.74,8.52,8.52,0,0,0-1.36-2.3"></path><path class="watermark-path" d="M382.66,141.76A32.3,32.3,0,0,1,388,138.1a34.12,34.12,0,0,1,5.15-2.35l3.69,4.4a19.62,19.62,0,0,0-2.37.6,22.08,22.08,0,0,0-2.61,1,26,26,0,0,0-2.77,1.49,23.9,23.9,0,0,0-2.8,2,21,21,0,0,0-2.8,2.78,13.19,13.19,0,0,0-1.64,2.51,7.29,7.29,0,0,0-.68,2.24,6.36,6.36,0,0,0,.06,2,5.8,5.8,0,0,0,.61,1.68,8.12,8.12,0,0,0,.93,1.38,9.16,9.16,0,0,0,1.08,1.08,6.56,6.56,0,0,0,1.48.9,6,6,0,0,0,1.87.48,6.76,6.76,0,0,0,2.28-.17,12,12,0,0,0,2.74-1.08,18.57,18.57,0,0,0,3.18-2.22c.58-.48,1.06-.92,1.46-1.31s.75-.77,1.05-1.12.57-.72.81-1.06l.73-1.09-1.82-2.17-5.45,4.57-3.3-3.94,10.3-8.65,7.71,9.19a29,29,0,0,1-1.67,2.43q-1,1.26-2.1,2.52c-.73.84-1.5,1.66-2.3,2.44s-1.57,1.5-2.33,2.14a31,31,0,0,1-3.59,2.61,22.15,22.15,0,0,1-3.64,1.83,15.56,15.56,0,0,1-3.62.89,11,11,0,0,1-3.49-.14,10.84,10.84,0,0,1-3.28-1.33,12.82,12.82,0,0,1-3-2.68,12.12,12.12,0,0,1-2.08-3.43A10.71,10.71,0,0,1,375,155a11.18,11.18,0,0,1,.51-3.51,15.51,15.51,0,0,1,1.57-3.43,21.44,21.44,0,0,1,2.42-3.28,30.19,30.19,0,0,1,3.14-3"></path><path class="watermark-path" d="M428.63,119.31a12.26,12.26,0,0,1,2.59,4.82,10.44,10.44,0,0,1,0,5,14.53,14.53,0,0,1-2.34,5,25.29,25.29,0,0,1-4.56,4.86,26,26,0,0,1-5.59,3.67,14.84,14.84,0,0,1-5.38,1.43,10.61,10.61,0,0,1-4.95-.89,12.15,12.15,0,0,1-4.3-3.37,12,12,0,0,1-2.56-4.81,10.48,10.48,0,0,1,0-5,14.39,14.39,0,0,1,2.35-5,27.89,27.89,0,0,1,10.16-8.53,14.49,14.49,0,0,1,5.36-1.43,10.27,10.27,0,0,1,4.92.92,12.21,12.21,0,0,1,4.28,3.37m-4.91,4.12a8.17,8.17,0,0,0-2-1.72,5.58,5.58,0,0,0-2.65-.86,7.86,7.86,0,0,0-3.31.58,14.49,14.49,0,0,0-4,2.52,16.21,16.21,0,0,0-2.38,2.4,9.85,9.85,0,0,0-1.4,2.24,7,7,0,0,0-.56,2.1,6,6,0,0,0,.1,1.9,6.23,6.23,0,0,0,.62,1.69,8.49,8.49,0,0,0,1,1.44,9.18,9.18,0,0,0,1.26,1.23,6.67,6.67,0,0,0,1.57.92,6,6,0,0,0,1.84.41,6.86,6.86,0,0,0,2.16-.2,11.26,11.26,0,0,0,2.45-1,17.62,17.62,0,0,0,2.76-1.94,14.67,14.67,0,0,0,3.19-3.52,7.71,7.71,0,0,0,1.13-3.17,5.53,5.53,0,0,0-.36-2.74,8.55,8.55,0,0,0-1.37-2.3"></path></g></svg>