<svg xmlns:xlink="http://www.w3.org/1999/xlink" xmlns="http://www.w3.org/2000/svg" class="svg-bc-right-top standalone" width="147.24692964950788" viewBox="201.3765531622551 161.37678323394476 147.24692964950788 147.24588136005542" height="147.24588136005542" ><g data-paper-data="{&quot;fillRule&quot;:&quot;nonzero&quot;,&quot;fillRuleOriginal&quot;:&quot;nonzero&quot;,&quot;isIcon&quot;:true,&quot;iconStyle&quot;:&quot;standalone&quot;,&quot;selectedEffects&quot;:{&quot;container&quot;:&quot;enclosed_circle_outline3&quot;,&quot;transformation&quot;:&quot;&quot;,&quot;pattern&quot;:&quot;&quot;},&quot;bounds&quot;:{&quot;x&quot;:201.3765531622551,&quot;y&quot;:161.37678323394476,&quot;width&quot;:147.24692964950788,&quot;height&quot;:147.24588136005542},&quot;widthRatioIconToContainer&quot;:0.9606812993230436,&quot;heightRatioIconToContainer&quot;:0.5810519215634302,&quot;relativeBoundsIconToContainer&quot;:{&quot;top&quot;:-0.05679609453986746,&quot;left&quot;:-5.53157785320546e-7},&quot;iconType&quot;:&quot;icon&quot;,&quot;rawIconId&quot;:&quot;a520f8e3-ff9a-4e59-9172-1ed53d1bf943&quot;,&quot;isDetailed&quot;:false,&quot;blockLetter&quot;:&quot;O&quot;,&quot;suitableAsStandaloneIcon&quot;:true}" fill-rule="nonzero"><g data-paper-data="{&quot;isPathIcon&quot;:true}"><path d="M246.34188,167.16334c-8.80843,3.72562 -16.60875,8.98454 -23.40097,15.77676c-6.79222,6.79222 -12.05114,14.59254 -15.77676,23.40097c-3.8584,9.12152 -5.78761,18.67458 -5.78761,28.65919c0,8.06135 1.25795,15.84175 3.77279,23.34016l1.60283,-3.14696l1.36068,-2.67209l0.7988,-1.56929c-1.24746,-5.17645 -1.8712,-10.49443 -1.8712,-15.95182c0,-9.21971 1.78,-18.03687 5.33894,-26.45254c3.43944,-8.13053 8.29407,-15.33123 14.56598,-21.60315c6.27157,-6.27087 13.47227,-11.12585 21.6021,-14.56493c8.41637,-3.55999 17.23388,-5.33999 26.45254,-5.33999c9.21866,0 18.03617,1.78 26.45254,5.33999c4.68515,1.98197 9.06176,4.43426 13.12983,7.3569h9.0698c-5.95848,-5.26451 -12.6235,-9.45557 -19.99402,-12.57318c-9.12117,-3.85771 -18.67423,-5.78656 -28.65814,-5.78656c-9.98391,0 -19.53697,1.92885 -28.65814,5.78656z" style="" fill="#8EDD65"></path><path d="M293.24654,269.41559l-40.39898,-85.55719h-5.00349l-43.57215,85.55719h19.16168l26.48503,-51.99411l24.41047,51.99411z" style="" fill="#8EDD65"></path><path d="M345.72811,269.41559v-17.20872h-10.86238v-68.22687h-29.41395v17.20872h12.20523v51.01815h-12.20523v17.20872z" style="" fill="#8EDD65"></path><path d="M348.62348,235.00025c0,-9.98496 -1.92885,-19.53802 -5.78761,-28.65919c-1.10699,-2.61653 -2.34922,-5.14431 -3.72667,-7.58333v13.62567c2.56691,7.24927 3.85037,14.78822 3.85037,22.61684c0,4.41225 -0.40778,8.7333 -1.22335,12.9621h3.99189l0.20861,0.00524l0.20756,0.01572l0.20651,0.02516l0.20546,0.03564l0.20337,0.04612l0.20022,0.05556l0.19813,0.06499l0.19393,0.07443l0.08072,0.03564c0.79356,-4.35145 1.19086,-8.792 1.19086,-13.32061z" style="" fill="#8EDD65"></path><path d="M327.05912,287.05935c-6.79222,6.79222 -14.59254,12.05114 -23.40097,15.77676c-9.12117,3.85771 -18.67423,5.78656 -28.65814,5.78656c-9.98391,0 -19.53697,-1.92885 -28.65814,-5.78656c-8.80843,-3.72562 -16.60875,-8.98454 -23.40097,-15.77676c-4.09986,-4.09986 -7.64098,-8.56662 -10.62337,-13.40028h6.76671c2.31148,3.33461 4.9322,6.4669 7.86112,9.39582c6.27087,6.27087 13.47262,11.12654 21.6021,14.56493c8.41672,3.55999 17.23388,5.33999 26.45254,5.33999c9.21866,0 18.03582,-1.78 26.45254,-5.33999c8.12948,-3.43839 15.33018,-8.29407 21.6021,-14.56493c2.92892,-2.92997 5.54964,-6.06121 7.86007,-9.39582h6.76776c-2.98273,4.83401 -6.52385,9.30077 -10.62337,13.40028z" style="" fill="#8EDD65"></path></g></g></svg>